<svg width="300" height="180" viewBox="0 0 300 180" fill="none" xmlns="http://www.w3.org/2000/svg">
<path d="M29.9374 63.1567V90.5862C29.9374 91.8401 28.997 92.7806 27.7431 92.7806H24.4515C24.2948 92.7806 24.1381 92.9373 24.1381 93.094V116.135C24.9218 116.135 25.7055 116.292 26.6459 116.292C41.3794 116.292 53.2917 104.379 53.2917 89.6458C53.2917 76.0094 43.1036 64.7241 29.9374 63.1567V63.1567ZM29.3105 104.223C27.4296 104.223 26.0189 102.655 26.0189 100.931C26.0189 99.0502 27.5863 97.6395 29.3105 97.6395C31.1914 97.6395 32.602 99.2069 32.602 100.931C32.7587 102.655 31.1914 104.223 29.3105 104.223ZM37.1475 104.223C35.2666 104.223 33.8559 102.655 33.8559 100.931C33.8559 99.0502 35.4233 97.6395 37.1475 97.6395C39.0283 97.6395 40.439 99.2069 40.439 100.931C40.439 102.655 39.0283 104.223 37.1475 104.223ZM44.9845 104.223C43.1036 104.223 41.6929 102.655 41.6929 100.931C41.6929 99.0502 43.2603 97.6395 44.9845 97.6395C46.8653 97.6395 48.276 99.2069 48.276 100.931C48.276 102.655 46.8653 104.223 44.9845 104.223Z" fill="#00985F"/>
<path d="M26.6458 63C11.9122 63 0 74.9122 0 89.6458C0 102.498 8.93417 113.157 21.0031 115.665V91.6834C21.0031 90.5862 21.9436 89.6458 23.0408 89.489H26.3323C26.489 89.489 26.6458 89.3323 26.6458 89.1756V63ZM21.4734 84.9436C19.5925 84.9436 18.1818 83.3762 18.1818 81.652C18.1818 79.7712 19.7492 78.3605 21.4734 78.3605C23.3542 78.3605 24.7649 79.9279 24.7649 81.652C24.7649 83.3762 23.3542 84.9436 21.4734 84.9436V84.9436ZM293.417 77.5768V87.6082H279.937V77.5768H273.198V104.223H279.937V93.4075H293.417V104.223H300V77.5768H293.417ZM182.445 80.5549C181.348 78.2038 179.154 76.9498 176.959 76.9498C174.765 76.9498 172.571 78.2038 171.473 80.5549L160.658 104.223H167.712L170.063 98.5799H183.856L186.207 104.223H193.26L182.445 80.5549ZM172.257 93.2508L176.332 83.5329C176.489 83.2194 176.646 83.2194 176.803 83.2194C176.959 83.2194 177.273 83.2194 177.273 83.5329L181.348 93.2508H172.257ZM103.135 72.7179C100 72.7179 97.9624 74.442 96.5517 77.7335L87.931 97.7962L79.3103 77.7335C77.8997 74.442 75.8621 72.7179 72.7273 72.7179C69.7492 72.7179 66.7712 74.7555 66.7712 79.3009V104.066H73.3542V80.0846L82.1317 99.9906C83.2288 102.812 85.2665 104.536 87.931 104.536C90.7524 104.536 92.6332 102.812 93.7304 99.9906L102.508 80.0846V104.223H109.091V79.4577C109.091 74.9122 106.113 72.7179 103.135 72.7179ZM120.846 98.5799C120.533 98.5799 120.219 98.2665 120.219 97.953V93.2508H136.834V87.7649H120.219V83.6897C120.219 83.3762 120.533 83.0627 120.846 83.0627H137.304V77.4201H117.555C115.204 77.4201 113.636 79.3009 113.636 81.3386V99.9906C113.636 102.028 115.361 103.909 117.555 103.909H137.304V98.2665H120.846V98.5799ZM148.433 104.223V83.8464C148.433 83.5329 148.746 83.2194 149.06 83.2194H165.517V77.5768H145.768C143.417 77.5768 141.85 79.4577 141.85 81.4953V104.066H148.433V104.223ZM268.809 90.8997C268.809 81.652 264.734 77.2633 254.702 77.2633H252.351C242.32 77.2633 238.245 81.652 238.245 90.8997C238.245 99.9906 242.32 104.536 252.351 104.536H254.545C264.734 104.379 268.809 99.9906 268.809 90.8997ZM254.545 98.8934H252.351C246.865 98.8934 244.671 96.3856 244.671 90.8997C244.671 85.5705 246.552 82.906 252.351 82.906H254.545C260.188 82.906 262.226 85.5705 262.226 90.8997C262.226 96.3856 260.188 98.8934 254.545 98.8934ZM219.749 73.3448H206.583C196.708 73.3448 192.79 78.3605 192.79 86.9812C192.79 88.3918 192.947 89.6458 193.103 90.7429C194.201 96.8558 197.806 100.618 207.053 100.618H210.031V104.066H216.614V100.618H219.436C228.683 100.618 232.288 96.8558 233.386 90.7429C233.542 89.6458 233.699 88.3918 233.699 86.9812C233.542 78.3605 229.467 73.3448 219.749 73.3448V73.3448ZM209.718 95.1317H206.74C202.194 95.1317 200.627 93.4075 199.687 90.7429C199.373 89.8025 199.373 88.3918 199.373 86.9812C199.373 81.3386 202.038 78.9875 205.799 78.9875H209.875V95.1317H209.718ZM226.646 90.8997C225.705 93.5643 223.981 95.2884 219.592 95.2884H216.614V78.9875H220.69C224.451 78.9875 227.116 81.3386 227.116 86.9812C226.959 88.5486 226.959 89.8025 226.646 90.8997V90.8997Z" fill="#00985F"/>
</svg>
