<svg width="160" height="88" viewBox="0 0 160 88" fill="none" xmlns="http://www.w3.org/2000/svg">
<path d="M14.9598 14.4069L14.9464 14.6086C14.9464 14.9221 14.9554 15.1551 14.9733 15.3073C15.0003 15.4507 15.0944 15.6255 15.2561 15.8315C15.4176 16.0286 15.9426 16.1272 16.831 16.1272L17.1944 16.1406C17.329 16.1406 17.4502 16.1272 17.5578 16.1003L17.5714 21.1131H10.208L9.75041 21.1399H9.60235C9.27022 21.1399 8.90682 21.0324 8.51189 20.8174C8.11708 20.6024 7.82098 20.4142 7.62346 20.253C7.4351 20.0827 7.27349 19.8677 7.13888 19.6079C6.88761 19.1241 6.73502 18.6493 6.68127 18.1834C6.63633 17.7085 6.61396 17.1217 6.61396 16.4229V8.97751H5.02548L5.01202 7.09603V5.1742H6.5601V0.72584H10.7196L14.8791 0.712402L14.8925 5.14733H17.1405L17.1541 7.06914V8.97751H14.9598V14.4069Z" fill="white"/>
<path d="M36.8482 12.1624L36.8613 16.342V18.8014L36.8746 21.113H29.2285L29.2152 14.232L29.256 12.7404C29.256 11.925 29.1349 11.3203 28.8925 10.9261C28.659 10.5229 28.3671 10.3213 28.0168 10.3213C27.3537 10.3213 26.9405 10.6528 26.7785 11.3158C26.6617 11.7816 26.6035 12.3909 26.6035 13.1435V14.8638L26.6176 15.4282V21.0996L22.7539 21.113H18.9174L18.9039 10.5766V0.0268794C20.7078 0.00895951 23.3058 0 26.6982 0L26.7112 6.77334C27.3393 6.06555 28.1027 5.50112 28.9994 5.08002C29.906 4.65893 30.7321 4.44838 31.4769 4.44838C32.2214 4.44838 32.953 4.62756 33.6712 4.98594C34.3884 5.34433 34.9811 5.81918 35.448 6.4105C35.8424 7.02869 36.1795 7.77681 36.4572 8.65484C36.7357 9.52391 36.8746 10.2496 36.8746 10.832L36.8482 12.1624Z" fill="white"/>
<path d="M45.1662 4.62292C45.5706 4.50648 46.0013 4.44824 46.4596 4.44824C46.9166 4.44824 47.3518 4.46615 47.765 4.502L48.33 4.55573C49.219 4.63638 49.9008 4.73941 50.3756 4.86484V4.8514L50.6589 4.97235C52.5436 5.55472 54.011 6.44171 55.0607 7.63331V7.61988C55.303 7.90657 55.5994 8.3411 55.9486 8.92347C56.3077 9.49688 56.4873 9.89559 56.4873 10.1196L56.5953 10.4824L56.6626 10.8722C56.8331 11.4724 56.918 11.9741 56.918 12.3774C56.918 12.7806 56.9225 13.0897 56.9324 13.3046H45.8393V13.7481C45.8933 13.9543 45.9209 14.1692 45.9209 14.3932C45.9209 14.6172 45.9209 14.7964 45.9209 14.9308C45.9297 15.0563 45.943 15.1816 45.9605 15.3071C45.9792 15.4235 45.988 15.5222 45.988 15.6028C45.997 15.6745 46.0188 15.7641 46.0553 15.8715C46.0917 15.9701 46.1093 16.0373 46.1093 16.0732C46.1181 16.109 46.1446 16.1807 46.1896 16.2881C46.2436 16.3957 46.2843 16.4987 46.3109 16.5972C46.3471 16.6868 46.4099 16.7765 46.4992 16.8661V16.8526L46.648 17.1348C46.8176 17.3229 47.0512 17.4574 47.3475 17.538C47.841 17.4305 48.1736 17.1752 48.3432 16.7719C48.5228 16.3688 48.6715 15.8671 48.7883 15.2667C49.111 15.1772 49.5682 15.1324 50.1609 15.1324L51.8839 15.1727H56.8509C56.7429 16.2658 56.4202 17.2692 55.8815 18.1831H55.8957C55.4286 18.9178 54.7015 19.5494 53.7146 20.078C50.9233 21.0546 49.1331 21.5429 48.3432 21.5429C48.2001 21.5429 48.0833 21.5339 47.994 21.516H47.6846L47.5633 21.5295H47.4423C47.3694 21.5295 47.2803 21.5205 47.1723 21.5025C47.0832 21.5563 46.9751 21.5832 46.8496 21.5832L45.6786 21.4488C45.6158 21.4757 45.4858 21.4891 45.2875 21.4891C45.0992 21.4891 44.5967 21.3682 43.7806 21.1263V21.1397L43.4577 21.0457L43.1339 20.9381C41.7876 20.5439 40.6344 19.8541 39.6749 18.8685C38.7143 17.8739 38.0996 16.7182 37.8309 15.4012C37.8032 15.2399 37.7537 14.998 37.6822 14.6755C37.6104 14.344 37.5742 14.12 37.5742 14.0035V13.3584C37.5742 13.2061 37.5796 13.0897 37.5883 13.009V12.8074C37.5883 10.908 38.1536 9.26842 39.2838 7.88866C40.4152 6.49995 41.9321 5.52337 43.8344 4.95892L44.1573 4.86484C44.6332 4.78421 44.9734 4.69909 45.1806 4.60949L45.1662 4.62292ZM49.1916 11.5307L49.4746 11.356C49.3214 10.3884 49.1783 9.77014 49.0439 9.50136C48.9094 9.22362 48.7784 8.9862 48.6529 8.78909C48.4204 8.41279 48.1097 8.22463 47.7242 8.22463C47.3473 8.22463 47.0246 8.41279 46.7549 8.78909C46.2801 9.4521 45.9792 10.3839 45.8537 11.5845C46.4277 11.5486 46.9574 11.5307 47.4423 11.5307H49.1916Z" fill="white"/>
<path d="M34.0974 65.6149L34.2495 63.4064C34.2495 63.0256 34.135 61.9975 33.9068 60.3221C33.5765 60.906 33.1182 61.4897 32.5333 62.0736C31.9737 62.6575 31.5032 63.0002 31.122 63.1017C28.3505 64.3202 24.9818 64.9293 21.0151 64.9293C17.074 64.9293 13.527 64.1298 10.3741 62.5306C7.24658 60.906 4.72936 58.5703 2.82239 55.5243C0.940762 52.478 0 49.2287 0 45.7763C0 42.3239 0.508497 39.265 1.52559 36.5997C2.56814 33.9087 4.00471 31.5734 5.83545 29.5933C7.69164 27.6131 9.97997 26.052 12.7007 24.9098C15.4213 23.7674 18.3962 23.1963 21.6254 23.1963C26.7873 23.1963 31.0968 24.6305 34.5547 27.4991C35.1903 28.1845 35.8512 28.7556 36.5386 29.2126L37.0717 27.5371V24.8715H46.9508L56.8662 24.8335L56.9049 60.7732L56.8662 67.2521L56.6383 69.3846C56.6383 69.5113 56.6383 69.5876 56.6383 69.613C56.6635 69.6382 56.5622 70.2095 56.3332 71.3265C56.1039 72.4435 55.8242 73.4334 55.4936 74.2965C54.4516 77.0888 52.3796 79.6274 49.2775 81.912C46.1754 84.222 44.5461 84.837 41.4253 85.9537C40.7082 86.1889 40.2863 86.3554 39.1086 86.6788C37.9751 86.9643 39.2618 86.6281 39.1086 86.6788L37.008 87.208C34.4368 87.874 33.5378 87.9283 31.2753 87.9283C29.0368 87.9283 28.0332 88.0172 27.956 87.9663H26.5031C26.274 88.0426 26.5031 87.9663 24.8288 87.9663C23.863 87.9663 22.0831 87.6745 19.4895 87.0905L18.2691 86.8241C16.4129 86.4432 14.7221 85.8975 13.1965 85.1867C9.58581 83.7398 6.75075 81.8105 4.69122 79.399C2.63171 76.9873 1.23323 73.6491 0.495829 69.3846L0.419593 69.0417C1.23323 69.0926 2.42822 69.118 4.00471 69.118L10.2596 69.0037H27.1552L27.1179 69.156C27.1179 70.4762 27.3975 71.6692 27.956 72.7354C28.5411 73.8269 29.3046 74.3726 30.2454 74.3726C31.8977 74.3726 33.0169 73.4334 33.6017 71.5549C34.0589 70.0826 34.288 68.5215 34.288 66.8714V66.1097C34.2122 66.1097 34.1735 66.1606 34.1735 66.2621C34.1229 66.186 34.0974 65.9702 34.0974 65.6149ZM35.1649 44.9005L35.2036 44.4435C34.9743 37.0819 33.3472 33.401 30.3212 33.401C29.4565 33.401 28.6943 33.7183 28.0332 34.3531C26.9646 35.3684 26.2277 36.8915 25.8213 38.9223C25.439 40.9533 25.2484 42.7174 25.2484 44.2151L25.3629 45.5479V45.8906L25.3245 46.157V46.3856C25.3245 48.467 25.8213 50.4981 26.8127 52.478C27.8042 54.4327 29.0633 55.4099 30.5878 55.4099C32.2667 55.4099 33.6645 53.3283 34.7837 49.1653H34.5931C34.9743 48.1752 35.1649 47.1597 35.1649 46.119V44.9005Z" fill="white"/>
<path d="M85.5098 10.3256L85.5485 20.7589H62.0538C62.0538 18.322 62.0283 16.583 61.9777 15.5422L61.939 10.4018L85.5098 10.3256ZM61.558 10.4018L61.939 10.021V10.4018H61.558ZM85.663 58.3415L85.7003 58.6842L85.739 64.3959C85.739 65.4368 85.6882 66.6807 85.5858 68.1275C85.4846 69.5744 85.3952 70.3235 85.3192 70.3741L84.6329 70.4504H70.7495L69.1479 70.6025C65.181 70.6025 62.7653 70.5519 61.9016 70.4504V70.1837L61.8632 69.4603V67.7468C61.8632 62.7458 61.939 58.5954 62.0922 55.2953L62.5119 25.9756V24.8331L65.4862 24.7951L66.1351 24.8331H67.2411L68.194 24.8712L68.6906 24.8331H71.4358L72.0087 24.7951L85.014 24.9474C85.1155 24.922 85.1925 24.9094 85.2433 24.9094C85.294 24.9094 85.3192 24.9855 85.3192 25.1378L85.3579 28.7552C85.3831 31.1667 85.4337 34.4033 85.5098 38.4651C85.5858 42.5013 85.6243 45.3572 85.6243 47.0324L85.5858 51.7922V53.8104L85.7003 55.8286V57.0088C85.7003 57.0342 85.6882 57.0851 85.663 57.1611V58.3415Z" fill="white"/>
<path d="M90.3922 24.8335L100.538 24.7955H110.682L111.522 29.898C112.107 33.4773 112.449 35.5081 112.552 35.9903H113.886C114.827 31.6495 116.632 28.5652 119.302 26.7374L120.828 25.8616C120.904 25.7095 121.362 25.43 122.201 25.0239L122.048 25.0621L122.925 24.7194C125.417 23.7294 127.565 23.2217 129.371 23.1963C129.753 23.1963 130.006 23.2217 130.134 23.2723H131.545V44.5198C131.011 44.3927 130.172 44.3294 129.028 44.3294C127.884 44.3294 126.702 44.4944 125.481 44.8245C124.286 45.1543 123.269 45.5859 122.43 46.119C121.616 46.6266 120.904 47.2868 120.294 48.0989C118.412 50.6121 117.471 54.3818 117.471 59.4083L117.547 63.4064V70.4127L103.97 70.4508H90.4295L90.3922 47.7182V24.8335Z" fill="white"/>
<path d="M136.313 10.6304L146 10.5923C148.949 10.5923 153.526 10.6177 159.73 10.6684V70.4505H136.389L136.313 10.6304Z" fill="white"/>
</svg>
