<svg width="295" height="80" viewBox="0 0 295 80" fill="none" xmlns="http://www.w3.org/2000/svg">
<path d="M60.7637 44.0463L60.8554 34.2071C60.8554 21.3335 55.2647 15.9082 46.8331 15.9082C38.9512 15.9082 34.0021 21.6094 31.1609 27.5864C29.5112 19.4025 24.5622 15.9082 17.7801 15.9082C9.53158 15.9082 4.5825 22.0692 1.74135 28.322L1.833 17.3795C1.833 17.1956 1.74135 17.1037 1.55805 17.1037H0.274948C0.09165 17.1037 0 17.1956 0 17.3795L0.1833 44.1379L0 64.0921C0 64.2762 0.09165 64.3679 0.274948 64.3679H1.55805C1.74135 64.3679 1.833 64.2762 1.833 64.0921L1.74135 44.0463V31.2646C5.40732 22.9887 10.0815 17.4715 17.5968 17.4715C25.0204 17.4715 30.061 21.9772 30.061 34.483V44.0463L29.9695 64.0921C29.9695 64.2762 30.061 64.3679 30.2444 64.3679H31.5275C31.7108 64.3679 31.8025 64.2762 31.8025 64.0921L31.7108 44.0463L31.8025 34.2071C31.8025 32.6439 31.7108 31.1726 31.5275 29.7933C35.1019 22.345 39.5012 17.5634 46.6498 17.5634C54.0734 17.5634 59.1142 22.0692 59.1142 34.483V44.1379L59.0225 64.0921C59.0225 64.2762 59.1142 64.3679 59.2975 64.3679H60.5804C60.7637 64.3679 60.8554 64.2762 60.8554 64.0921L60.7637 44.0463Z" fill="white"/>
<path d="M75.2279 80.0002H76.3278C76.5112 80.0002 76.6028 80.0002 76.6941 79.8161L98.4154 17.3795C98.507 17.1956 98.4153 17.0117 98.1404 17.0117H96.8571C96.6741 17.0117 96.5821 17.1037 96.4908 17.1956L81.2769 61.7015L64.1385 17.1956C64.0468 17.1037 63.9551 17.0117 63.7718 17.0117H62.4885C62.2135 17.0117 62.2135 17.1956 62.2135 17.3795L80.5436 64.2759L75.0445 79.7244C74.9529 79.9081 75.0445 80.0002 75.2279 80.0002Z" fill="white"/>
<path d="M103.695 40.2757C103.695 28.7816 108.369 19.4943 119 19.4943C128.532 19.4943 134.122 27.6782 134.031 41.1955C133.939 54.8045 127.982 61.7012 118.817 61.7012C108.369 61.7012 103.695 52.138 103.695 40.2757ZM137.788 64.3677C138.063 64.3677 138.247 64.184 138.247 63.9078L138.063 25.8391L138.247 0.459771C138.247 0.183912 138.063 0 137.788 0H134.031C133.756 0 133.572 0.183912 133.572 0.459771L133.664 25.931C130.64 19.4943 125.232 16 117.992 16C105.803 16 99.1118 27.1264 99.1118 40.7356C99.1118 54.5287 105.711 65.2875 117.992 65.2875C125.507 65.2875 130.915 61.3334 133.847 54.8965L133.664 63.9078C133.664 64.184 133.847 64.3677 134.122 64.3677H137.788Z" fill="white"/>
<path d="M178.288 47.6323C178.013 47.6323 177.829 47.8161 177.738 48.0918C176.271 56.6436 171.505 61.7929 162.89 61.7929C151.709 61.7929 146.027 53.9771 146.027 40.6435L182.045 40.5515C182.32 40.5515 182.503 40.3678 182.503 40.092C182.32 24.8276 174.805 16 162.249 16C149.601 16 141.536 26.2989 141.536 40.8277C141.536 55.3564 148.868 65.3791 162.799 65.3791C174.163 65.3791 180.579 58.6665 182.228 48.0918C182.32 47.8161 182.137 47.6323 181.862 47.6323H178.288ZM177.646 36.8736H146.21C147.31 26.2988 152.901 19.5862 162.249 19.5862C172.33 19.5862 177.554 27.3103 177.646 36.8736Z" fill="white"/>
<path d="M224.556 47.3562C224.556 47.0804 224.373 46.8967 224.098 46.8967H220.707C220.432 46.8967 220.249 47.0804 220.249 47.3562C219.424 56.0921 214.292 61.7929 204.852 61.7929C193.854 61.7012 188.721 53.701 188.721 40.8277C188.721 27.954 193.945 19.6782 204.943 19.6782C213.558 19.6782 218.507 24.5517 219.607 32.6437C219.699 32.9195 219.882 33.1035 220.157 33.1035H223.548C223.823 33.1035 224.006 32.8276 224.006 32.6437C223.09 22.7126 216.308 16 204.943 16C191.287 16 184.139 26.023 184.139 40.8277C184.139 55.6322 191.288 65.3791 204.76 65.3791C216.949 65.3791 223.732 57.7471 224.556 47.3562Z" fill="white"/>
<path d="M268.008 40.7356C268.008 25.931 260.492 16 246.928 16C233.272 16 225.849 25.931 225.849 40.7356C225.849 55.5401 233.272 65.3791 246.928 65.3791C260.492 65.3791 268.008 55.4481 268.008 40.7356ZM230.431 40.7356C230.431 27.8621 235.93 19.6782 246.928 19.5862C257.835 19.5862 263.334 27.954 263.334 40.7356C263.334 53.6093 257.926 61.7929 246.928 61.7929C236.022 61.7929 230.431 53.6093 230.431 40.7356Z" fill="white"/>
<path d="M275.479 64.3679C275.754 64.3679 275.937 64.1842 275.937 63.908L275.754 35.6784C276.944 25.1956 284.185 20.414 291.15 20.414C292.525 20.414 293.625 20.5979 294.542 20.8738C294.817 20.8738 295 20.6899 295 20.5059V17.4715C295 17.1956 294.817 16.9197 294.542 16.8278C293.625 16.5519 292.342 16.46 291.059 16.46C284.643 16.46 278.778 20.0462 275.57 26.1151L275.937 17.4715C275.937 17.1956 275.754 17.0117 275.479 17.0117H271.721C271.446 17.0117 271.262 17.1956 271.262 17.4715L271.446 39.9081L271.262 63.908C271.262 64.1842 271.446 64.3679 271.721 64.3679H275.479Z" fill="white"/>
</svg>
