<svg width="287" height="48" viewBox="0 0 287 48" fill="none" xmlns="http://www.w3.org/2000/svg">
<path d="M0.20557 47.5786C0.20557 47.5786 0.342615 47.0475 0.411138 46.7221C0.479661 46.3966 0.411138 45.5743 0.411138 45.5743L0.496793 23.3043V20.6148C0.501226 19.7783 0.332063 18.95 0 18.1822L11.0665 12.0494V18.0281C11.272 17.7711 15.1264 11.9809 21.3449 12.7175C27.5634 13.4541 27.6319 18.0794 27.7176 18.0281C27.8032 17.9767 31.7433 11.9466 37.6705 12.7175C43.0838 13.4199 43.9575 17.4799 43.9575 18.9531V46.0711C43.9575 46.0711 43.9575 46.722 44.0774 46.8077L44.283 47.5272C44.283 47.5272 33.0795 47.5272 33.1137 47.5272C33.2393 47.3386 33.332 47.1301 33.3878 46.9105C33.3878 46.4994 33.5077 45.8484 33.5077 45.8484L33.2508 24.0409C33.2247 23.4248 32.9928 22.8351 32.5922 22.3662C32.1916 21.8973 31.6454 21.5762 31.0409 21.4542C28.6083 20.9745 27.6148 24.4178 27.6148 24.4178L27.4092 45.9854C27.4288 46.287 27.4804 46.5856 27.5634 46.8762L27.7689 47.4929H16.4627C16.5561 47.2609 16.625 47.0198 16.6682 46.7734C16.6907 46.5284 16.6907 46.2818 16.6682 46.0368V24.1951C16.6437 23.5484 16.3883 22.9319 15.9483 22.4574C15.5083 21.9828 14.9129 21.6816 14.2699 21.6084C12.5568 21.6084 11.3406 24.1095 11.1007 25.4285L10.9294 45.9854L11.1007 46.7906L11.3406 47.4758H0.171308L0.20557 47.5786ZM57.1996 39.9211C57.4984 40.3855 57.9051 40.7707 58.3849 41.044C58.8647 41.3173 59.4035 41.4706 59.9553 41.4908C60.5072 41.511 61.0557 41.3975 61.5542 41.16C62.0527 40.9225 62.4865 40.568 62.8185 40.1267C62.8185 40.1267 60.2146 30.1566 59.8891 30.0196C59.8891 30.0196 54.2702 33.086 57.1996 39.9211ZM69.4823 47.3559C68.6074 47.1568 67.7692 46.8215 66.9984 46.3623C66.1802 45.7198 65.4074 45.0215 64.6857 44.2723C64.4823 44.3699 64.2874 44.4846 64.1033 44.615C62.6856 45.6171 61.1905 46.505 59.6321 47.2702C57.3011 48.2042 54.6998 48.2042 52.3687 47.2702C50.6089 46.3929 49.1378 45.0293 48.1297 43.341C47.1216 41.6528 46.6189 39.7108 46.6813 37.7455C46.6813 36.3579 46.4415 30.5335 51.1695 27.4671C53.6719 25.9655 56.4727 25.0299 59.3752 24.7262C59.3752 24.7262 58.57 19.8439 55.812 18.4734C54.8566 18.0405 53.8087 17.8515 52.7623 17.9232C51.7158 17.995 50.7036 18.3253 49.8162 18.8846V13.4884C52.1576 12.5243 54.6519 11.9848 57.1824 11.8952C59.5351 11.8126 61.8764 12.2574 64.0347 13.1972C65.3024 13.8139 68.78 16.0923 69.9962 22.482L71.8978 34.8504C72.016 36.9429 72.5274 38.9944 73.4053 40.8976C73.5978 41.2867 73.904 41.6082 74.2834 41.8193C74.6627 42.0304 75.0973 42.1211 75.5295 42.0796H75.7179V47.6471C73.667 47.7262 71.6133 47.6804 69.568 47.5101L69.4823 47.3559ZM77.4824 47.6471L77.7393 47.1161L77.8935 46.4308V21.163C77.841 20.339 77.7264 19.5201 77.5509 18.7133L77.0884 17.5655L88.7887 11.5869V16.6404C89.3197 16.1094 90.1763 14.9274 91.1527 13.8653C91.7175 13.1044 92.4504 12.4844 93.2943 12.0535C94.1383 11.6226 95.0704 11.3926 96.0178 11.3813C96.5692 11.3747 97.1165 11.4772 97.628 11.683C98.1396 11.8888 98.6054 12.1938 98.9986 12.5805L96.6859 21.4884C95.3493 21.1499 93.966 21.0342 92.5917 21.1458C91.9648 21.2119 91.3646 21.4349 90.8466 21.7942C90.3287 22.1535 89.9096 22.6375 89.6281 23.2015C89.087 24.7742 88.7923 26.4211 88.7544 28.0838V46.3109C88.8002 46.5902 88.8689 46.8652 88.96 47.1332L89.1827 47.5443H77.431L77.4824 47.6471ZM99.2727 47.6471C99.3566 47.4236 99.4253 47.1947 99.4783 46.9619C99.5297 46.6614 99.5297 46.3544 99.4783 46.054V17.4113L110.716 11.5698V45.934C110.714 46.2746 110.755 46.614 110.836 46.9447L111.127 47.6642H99.2384L99.2727 47.6471ZM123.838 29.1802L131.324 26.6619C131.324 26.6619 131.77 17.5655 127.487 17.9081C123.204 18.2507 123.77 29.1802 123.838 29.1802ZM131.136 41.4629C136.275 41.9426 138.382 39.7498 138.382 39.7498V45.6942C138.091 45.9683 135.247 47.5443 129.628 47.6814C126.637 47.9163 123.646 47.2224 121.063 45.6942C119.06 44.2523 117.373 42.4157 116.106 40.2974C114.839 38.1792 114.019 35.8241 113.697 33.3772C113.014 28.7195 113.68 23.9636 115.615 19.6726C116.642 17.6352 118.12 15.8588 119.937 14.4784C121.754 13.0981 123.861 12.1502 126.099 11.7068C128.613 11.098 131.257 11.3415 133.616 12.3988C135.976 13.4562 137.918 15.2676 139.136 17.5484C140.808 21.0398 141.962 24.7563 142.562 28.5806C142.562 28.5806 125.054 34.1652 124.935 34.3194C124.815 34.4736 126.031 40.9147 131.136 41.4115V41.4629ZM105.611 11.0216C104.56 10.8868 103.57 10.4532 102.758 9.77227C101.947 9.0913 101.347 8.19159 101.032 7.18008C100.717 6.16857 100.698 5.08779 100.979 4.06619C101.26 3.04459 101.829 2.12513 102.617 1.41706C103.405 0.708996 104.38 0.242091 105.426 0.0718737C106.471 -0.0983437 107.544 0.0352752 108.516 0.456829C109.488 0.878383 110.319 1.57016 110.909 2.44994C111.5 3.32972 111.825 4.36052 111.847 5.41982C111.749 6.98468 111.041 8.44871 109.875 9.4965C108.709 10.5443 107.177 11.092 105.611 11.0216Z" fill="white"/>
<path d="M223.845 47.5783C223.95 47.3497 224.041 47.1151 224.119 46.876V46.1736V17.9421L235.306 11.6552V46.0366C235.347 46.3546 235.41 46.6694 235.494 46.9788C235.554 47.1804 235.635 47.3755 235.734 47.5612H223.742L223.845 47.5783ZM215.485 47.3728C214.609 47.1785 213.77 46.8429 213.001 46.3792C212.184 45.7295 211.411 45.0255 210.689 44.2721C210.485 44.3693 210.29 44.484 210.106 44.6147C208.69 45.6195 207.201 46.5184 205.652 47.3042C203.326 48.2319 200.732 48.2319 198.406 47.3042C196.628 46.4306 195.141 45.0621 194.123 43.3633C193.105 41.6644 192.599 39.7076 192.667 37.7282C192.667 36.3406 192.427 30.5161 197.155 27.4497C199.658 25.9491 202.459 25.0136 205.361 24.7088C205.361 24.7088 204.556 19.8265 201.798 18.4561C200.842 18.0247 199.794 17.8364 198.748 17.9082C197.702 17.9799 196.69 18.3094 195.802 18.8672V13.4367C198.144 12.4754 200.638 11.9361 203.168 11.8436C205.521 11.7568 207.863 12.2018 210.021 13.1455C211.288 13.7622 214.783 16.0406 215.999 22.4304L217.901 34.8159C218.016 36.9089 218.527 38.961 219.408 40.8631C219.622 41.2758 219.961 41.6106 220.376 41.8197C220.791 42.0289 221.262 42.1017 221.721 42.028V47.5955C219.67 47.6793 217.616 47.6335 215.571 47.4584L215.485 47.3728ZM206.629 30.3277C204.93 31.1877 203.639 32.6815 203.033 34.4863C202.427 36.291 202.556 38.2617 203.391 39.9723C203.699 40.5816 204.209 41.065 204.834 41.34C205.459 41.6149 206.16 41.6643 206.817 41.4798C207.589 41.2708 208.277 40.828 208.787 40.2121C208.633 39.4584 206.954 30.893 206.663 30.3105L206.629 30.3277ZM230.183 11.3297C229.133 11.195 228.142 10.7613 227.331 10.0804C226.519 9.39939 225.92 8.4997 225.604 7.48819C225.289 6.47668 225.271 5.39591 225.552 4.3743C225.833 3.3527 226.401 2.43321 227.189 1.72515C227.977 1.01708 228.952 0.550202 229.998 0.379984C231.044 0.209767 232.116 0.34336 233.089 0.764914C234.061 1.18647 234.891 1.87827 235.482 2.75805C236.072 3.63783 236.397 4.66861 236.419 5.72791C236.317 7.29116 235.608 8.75259 234.443 9.79949C233.277 10.8464 231.749 11.3956 230.183 11.3297ZM176.444 46.1736C174.069 47.3489 171.433 47.8974 168.787 47.7668C162.38 47.7668 159.451 44.9916 159.451 44.9916C159.451 44.9916 154.311 41.3427 153.712 31.1671C153.54 21.334 156.847 17.5653 157.652 16.5203C158.94 14.8715 160.596 13.5476 162.488 12.6551C164.38 11.7625 166.456 11.3262 168.547 11.3811C170.919 11.6753 173.255 12.2091 175.519 12.9742V18.9015C174.026 18.3233 172.466 17.932 170.877 17.7366C170.025 17.7544 169.189 17.9694 168.434 18.3647C167.679 18.76 167.026 19.3249 166.526 20.0149C164.907 22.7836 164.184 25.9844 164.453 29.1799C164.584 32.0154 165.271 34.7975 166.474 37.3684C167.069 38.4496 167.9 39.3825 168.905 40.0974C169.911 40.8123 171.065 41.2907 172.282 41.4969C173.811 41.5246 175.309 41.069 176.564 40.195L176.444 46.1736ZM178.877 47.527V46.9616C178.923 46.6667 178.952 46.3692 178.963 46.0708V9.53093C178.913 8.67584 178.602 7.85659 178.072 7.18403C178.072 7.18403 190.149 0.588675 190.063 0.742852V45.9338C190.102 46.2916 190.165 46.6465 190.252 46.9959C190.31 47.1765 190.379 47.3538 190.457 47.527H178.723H178.877ZM268.608 29.0257C271.149 28.3299 273.649 27.4891 276.094 26.5075C276.385 26.2334 276.556 17.394 272.257 17.7537C267.957 18.1134 268.214 29.0257 268.608 29.0257ZM238.543 17.5481L250.346 11.3982V16.6573L252.642 13.8479C253.232 13.1104 253.977 12.5106 254.823 12.0905C255.669 11.6703 256.597 11.4399 257.541 11.4153C259.94 11.4153 260.385 12.683 260.385 12.683L258.124 21.3854C256.796 21.0994 255.433 21.0186 254.081 21.1456C253.454 21.2116 252.854 21.4346 252.336 21.7939C251.818 22.1532 251.399 22.6372 251.117 23.2013C250.422 24.7453 249.938 26.376 249.678 28.0493L250.346 46.0366C250.346 46.0366 250.432 46.7903 250.466 46.9274C250.501 47.1584 250.583 47.38 250.706 47.5783H238.852C238.95 47.3232 239.025 47.0594 239.074 46.7903C239.159 46.2231 239.205 45.6507 239.211 45.0772V21.1798C239.212 20.4044 239.144 19.6303 239.006 18.8672C238.906 18.4222 238.769 17.9866 238.595 17.5653L238.543 17.5481ZM275.803 41.4284C280.942 41.908 283.049 39.4755 283.049 39.4755V45.5398C282.758 45.8139 279.914 47.407 274.295 47.527C271.304 47.7563 268.314 47.0627 265.73 45.5398C263.727 44.0971 262.041 42.2603 260.774 40.1422C259.508 38.0241 258.687 35.6694 258.364 33.2228C257.682 28.5651 258.348 23.8097 260.282 19.5182C261.31 17.4815 262.789 15.7058 264.605 14.3256C266.422 12.9454 268.529 11.997 270.766 11.5524C273.276 11.0684 275.874 11.3695 278.207 12.4147C280.539 13.46 282.493 15.1986 283.803 17.3939C285.516 20.0149 287.126 28.2206 286.886 28.4604C286.646 28.7003 269.755 34.1136 269.755 34.302C269.755 34.4904 270.852 40.8974 275.957 41.3941" fill="white"/>
</svg>
