<svg width="142" height="24" viewBox="0 0 142 24" fill="none" xmlns="http://www.w3.org/2000/svg">
<path d="M62.0878 10.5616H55.4112V0.162488H52.073V23.7914H55.4112V11.4424H62.0878V23.7914H63.0858V0.162488H62.0878V10.5616ZM45.4394 22.9106C43.2712 22.9106 41.8688 21.1488 41.8688 12.1693C41.8688 3.43784 42.9357 1.05187 45.405 1.05187C47.8743 1.05187 49.1132 3.50627 49.1132 8.32953H50.1113C50.1113 2.53135 48.5454 0.00856024 44.949 0.00856024C40.8105 0.00856024 38.3412 4.44697 38.3412 12.1693C38.3412 20.2338 41.0084 23.9539 45.0178 23.9539C48.5196 23.9539 50.3866 21.2429 50.3608 15.0086H49.3627C49.3799 20.3022 47.9087 22.9106 45.4394 22.9106ZM21.7273 1.04336C24.1277 1.04336 25.2634 3.18985 25.2634 7.37173H26.2615C26.2615 2.24059 24.7558 0 21.2196 0C18.2857 0 16.2123 1.98403 16.2123 5.23375C16.2123 11.5964 23.5513 13.016 23.5513 19.5667C23.5771 19.996 23.5143 20.4259 23.3669 20.8302C23.2195 21.2345 22.9905 21.6045 22.694 21.9177C22.3975 22.2308 22.0398 22.4804 21.6427 22.6511C21.2457 22.8219 20.8177 22.9102 20.3851 22.9106C17.7523 22.9106 15.9455 21.0206 15.9455 16.2657H14.9475C14.9475 21.6192 17.0468 23.9624 20.6174 23.9624C24.188 23.9624 26.5885 21.7902 26.5885 18.2241C26.5885 12.4259 19.2494 9.78339 19.2494 4.13914C19.258 2.1551 20.1528 1.05187 21.7273 1.05187V1.04336ZM37.412 0.188169L33.9103 13.0759L30.3053 0.188169H26.8637L31.1656 14.6836V23.817H34.5039V14.658L38.5047 0.162488H37.4034L37.412 0.188169ZM7.71168 0.188169H3.9776V23.817H7.31589V13.8113H7.74608C12.5212 13.8113 14.8184 11.1004 14.8184 6.96981C14.8184 2.83925 12.4782 0.162488 7.74608 0.162488L7.71168 0.188169ZM7.74608 12.8963H7.28149V1.07755H7.74608C11.7813 1.07755 13.7171 3.31815 13.7171 6.96981C13.7171 10.6215 11.7813 12.8963 7.74608 12.8963ZM134.661 4.07071C134.661 2.12088 135.599 1.04336 137.199 1.04336C139.634 1.04336 140.804 3.15564 140.804 7.37173H141.802C141.802 2.24059 140.271 0 136.7 0C133.732 0 131.624 1.98403 131.624 5.23375C131.624 11.7246 138.928 13.1699 138.928 19.849C138.928 21.5593 137.991 22.902 136.089 22.902C133.62 22.902 131.916 21.012 131.916 16.2572H130.953C130.953 21.6106 132.889 23.9539 136.261 23.9539C139.832 23.9539 142 21.8416 142 18.4122C141.966 12.52 134.687 9.77482 134.687 4.07071H134.661ZM116.541 23.7914H119.88V0.162488H116.541V23.7914ZM107.722 13.6916H110.527V18.1985C110.527 21.7304 109.426 22.9533 107.989 22.9533C105.95 22.9533 104.918 21.1916 104.918 12.2121C104.918 3.48064 106.088 1.09467 108.789 1.09467C111.155 1.09467 112.325 3.54907 112.325 8.37234H113.324C113.324 2.57415 111.792 0.0513093 108.35 0.0513093C104.049 0.0513093 101.407 4.48977 101.407 12.2121C101.407 20.2766 103.808 23.9966 107.585 23.9966C108.287 24.0285 108.982 23.8345 109.564 23.4432C110.147 23.0519 110.587 22.4842 110.82 21.8244L111.018 23.8427H113.857V12.768H107.722V13.6232V13.6916ZM126.014 10.9208H130.316V10.0656H126.014V1.05187H130.652V0.196677H122.676V23.8256H130.781V22.9704H125.971V10.878L126.014 10.9208ZM93.4401 0.00856024C89.6028 0.00856024 87.0647 4.38713 87.0647 11.9812C87.0647 20.1397 89.8351 23.9539 93.5089 23.9539C97.1827 23.9539 99.4197 20.4903 99.4197 11.9812C99.4197 3.75429 97.5441 0.00856024 93.4401 0.00856024ZM93.9047 22.9106C92.27 22.9106 90.5664 21.0804 90.5664 12.0069C90.5664 2.52284 92.0033 1.04336 93.9047 1.04336C96.6407 1.04336 98.4131 4.41278 98.4131 11.9726C98.4131 19.5325 96.4084 22.9106 93.9133 22.9106H93.9047ZM71.4143 0.00856024C67.577 0.00856024 65.0389 4.38713 65.0389 11.9812C65.0389 20.1397 67.8093 23.9539 71.4832 23.9539C75.157 23.9539 77.394 20.4903 77.394 11.9812C77.437 3.75429 75.5527 0.00856024 71.4143 0.00856024ZM71.8789 22.9106C70.2442 22.9106 68.5406 21.0804 68.5406 12.0069C68.5406 2.52284 69.9775 1.04336 71.8789 1.04336C74.6149 1.04336 76.3873 4.41278 76.3873 11.9726C76.3873 19.5325 74.4171 22.9106 71.9133 22.9106H71.8789ZM82.9262 0.162488H79.5879V23.7914H87.7616V22.9362H82.952V0.188169L82.9262 0.162488ZM1.30183 6.43104C1.04645 6.43777 0.798711 6.51917 0.589638 6.66509C0.380565 6.81101 0.219439 7.01494 0.126364 7.25141C0.0332884 7.48789 0.0123926 7.74639 0.0663409 7.99459C0.120289 8.24279 0.246693 8.4697 0.429682 8.64689C0.612671 8.82408 0.844154 8.9437 1.09519 8.99081C1.34622 9.03793 1.60564 9.01045 1.84104 8.91179C2.07643 8.81312 2.27734 8.64767 2.41863 8.43612C2.55992 8.22456 2.63532 7.97631 2.63541 7.72238C2.6401 7.55226 2.61001 7.38296 2.54692 7.22474C2.48384 7.06652 2.38906 6.92264 2.26839 6.8019C2.14772 6.68115 2.00368 6.58603 1.84492 6.52228C1.68617 6.45853 1.51602 6.4275 1.34484 6.43104H1.30183ZM1.30183 8.52626C1.14446 8.51626 0.993473 8.46073 0.867435 8.36654C0.741396 8.27235 0.645796 8.14359 0.592421 7.9961C0.539047 7.84862 0.530211 7.68882 0.567005 7.53641C0.603799 7.384 0.684639 7.24565 0.799535 7.1383C0.914431 7.03095 1.05839 6.95931 1.21371 6.93223C1.36902 6.90515 1.52888 6.92377 1.67367 6.98584C1.81847 7.0479 1.94187 7.15067 2.02867 7.28153C2.11546 7.41239 2.16189 7.56565 2.16221 7.72238C2.16567 7.83121 2.14707 7.9396 2.10754 8.04115C2.06802 8.1427 2.00839 8.23533 1.93215 8.31351C1.8559 8.39169 1.76459 8.45383 1.6637 8.49625C1.56281 8.53867 1.45438 8.56051 1.34484 8.56045L1.30183 8.52626ZM0.863024 1.71894C0.980573 1.72431 1.09778 1.7024 1.20531 1.65489C1.31284 1.60739 1.40771 1.5356 1.48247 1.44527C1.53972 1.3666 1.578 1.27589 1.59433 1.18017L2.6268 1.89855V1.33409L1.63739 0.718382V0.632832H2.58379V0.162488H0.00264196V0.863749C-0.0149785 1.08682 0.0560476 1.30785 0.200513 1.47946C0.284821 1.56753 0.388518 1.63501 0.503464 1.67655C0.618409 1.7181 0.741491 1.73261 0.863024 1.71894ZM0.475841 0.632832H1.25021V0.769691C1.26243 0.827002 1.26163 0.886285 1.24784 0.943245C1.23406 1.0002 1.20765 1.05338 1.17054 1.0989C1.13344 1.14441 1.08658 1.18115 1.03338 1.20637C0.980176 1.23158 0.921963 1.24463 0.863024 1.24463C0.804084 1.24463 0.745871 1.23158 0.69267 1.20637C0.639468 1.18115 0.592609 1.14441 0.555504 1.0989C0.5184 1.05338 0.491987 1.0002 0.478204 0.943245C0.464422 0.886285 0.463619 0.827002 0.475841 0.769691V0.624271V0.632832ZM2.6268 5.5331H0.501678V4.72066H0.0714872V5.99488H2.65263V5.52454L2.6268 5.5331ZM0.0456505 23.7572H2.6268V23.2868H0.501678V22.3119H2.58379V21.8416H0.00264196V23.7572H0.0456505ZM2.6268 4.08783L0.906032 2.76224H2.6268V2.2919H0.0456505V2.57413L1.76641 3.89966H0.0456505V4.37H2.6268V4.03652V4.08783ZM1.35345 11.7845C1.09807 11.7913 0.850332 11.8727 0.641259 12.0186C0.432186 12.1645 0.27106 12.3684 0.177985 12.6049C0.0849092 12.8414 0.0640134 13.0999 0.117962 13.3481C0.17191 13.5963 0.298314 13.8232 0.481303 14.0004C0.664292 14.1776 0.895775 14.2972 1.14681 14.3443C1.39784 14.3914 1.65726 14.3639 1.89266 14.2653C2.12805 14.1666 2.32896 14.0012 2.47025 13.7896C2.61154 13.5781 2.68694 13.3298 2.68703 13.0759C2.70096 12.8964 2.67595 12.716 2.61367 12.5469C2.55138 12.3779 2.45326 12.2241 2.326 12.0959C2.19874 11.9678 2.04529 11.8684 1.87601 11.8043C1.70673 11.7403 1.52559 11.7131 1.34484 11.7247L1.35345 11.7845ZM1.35345 13.8797C1.19608 13.8697 1.04509 13.8142 0.919056 13.72C0.793017 13.6258 0.697417 13.4971 0.644042 13.3496C0.590668 13.2021 0.581831 13.0423 0.618626 12.8899C0.65542 12.7375 0.73626 12.5991 0.851156 12.4917C0.966051 12.3844 1.11001 12.3128 1.26533 12.2857C1.42065 12.2586 1.5805 12.2773 1.7253 12.3393C1.87009 12.4014 1.99349 12.5042 2.08029 12.635C2.16708 12.7659 2.21351 12.9191 2.21383 13.0759C2.19623 13.2884 2.09525 13.4856 1.93267 13.6248C1.77009 13.764 1.55894 13.8341 1.34484 13.8199L1.35345 13.8797ZM2.6268 9.96297V9.41564H0.0456505V11.0576H1.50831C1.71426 11.0246 1.92523 11.0672 2.10198 11.1773C2.13176 11.2045 2.15553 11.2376 2.17182 11.2744C2.18811 11.3112 2.19656 11.3509 2.1966 11.3911C2.20371 11.4365 2.20371 11.4826 2.1966 11.5279H2.58379C2.5914 11.4626 2.5914 11.3966 2.58379 11.3313C2.58873 11.1558 2.52732 10.985 2.4117 10.8524C2.29699 10.7479 2.16006 10.6706 2.01107 10.6262C1.86209 10.5818 1.70491 10.5714 1.55132 10.5958H0.415608V9.89454H2.58379L2.6268 9.96297ZM0.0456505 19.1477H2.6268V18.8142L0.906032 17.4886H2.6268V17.0183H0.0456505V17.3518L1.76641 18.6774H0.0456505V19.1477ZM0.0456505 16.5821L1.25021 15.8637L2.60101 16.7189V16.1545L1.72341 15.4875L2.66124 14.9572V14.3928L1.31044 15.248L0.105884 14.504V15.0684L0.863024 15.4875L0.0714872 15.9151V16.4795L0.0456505 16.5821ZM1.92989 19.6608C2.01732 19.7272 2.08832 19.8126 2.13753 19.9104C2.18673 20.0082 2.21285 20.1159 2.21383 20.2252C2.21383 20.4521 2.12317 20.6696 1.96182 20.8299C1.80046 20.9903 1.58163 21.0804 1.35345 21.0804C1.13393 21.0808 0.922565 20.9978 0.762618 20.8484C0.60267 20.6989 0.506237 20.4944 0.493066 20.2766C0.494556 20.1649 0.520771 20.0548 0.569841 19.9543C0.61891 19.8538 0.689645 19.7653 0.777006 19.695H0.191901C0.0887792 19.8747 0.0353525 20.0783 0.0370383 20.2851C0.0336225 20.4426 0.0615373 20.5992 0.119117 20.7459C0.176697 20.8927 0.262822 21.0267 0.3726 21.1403C0.504384 21.2678 0.660714 21.3676 0.832198 21.4338C1.00368 21.4999 1.18683 21.5309 1.37067 21.5251C1.55208 21.5321 1.73293 21.5016 1.90179 21.4353C2.07066 21.3691 2.22381 21.2686 2.35147 21.1403C2.46594 21.0293 2.5563 20.8961 2.61698 20.749C2.67765 20.6019 2.70738 20.4441 2.70425 20.2851C2.70886 20.0763 2.6584 19.8699 2.55795 19.6865H1.9729L1.92989 19.6608Z" fill="white"/>
</svg>
