<svg width="368" height="160" viewBox="0 0 368 160" fill="none" xmlns="http://www.w3.org/2000/svg">
<path d="M161.952 122.537C161.757 129.951 161.366 137.756 158.44 144.195C155.122 152 147.513 156.293 135.22 157.659C135.025 157.659 132.293 157.854 129.757 157.659C129.757 157.268 129.757 2.53659 129.757 2.14634C130.147 2.14634 140.879 2.14634 140.879 2.14634V0H140.683H100.488V2.14634C100.488 2.14634 111.415 2.14634 111.61 2.14634C111.61 2.53659 111.61 157.268 111.61 157.659C111.22 157.659 100.488 157.659 100.488 157.659V160H163.513V118.634H162.342L161.952 122.537Z" fill="white"/>
<path d="M268.682 122.537C268.487 129.951 268.097 137.756 265.17 144.195C261.853 152 254.243 156.293 241.95 157.659C241.755 157.659 239.024 157.854 236.487 157.659C236.487 157.268 236.487 2.53659 236.487 2.14634C236.877 2.14634 247.609 2.14634 247.609 2.14634V0H247.414H207.219V2.14634C207.219 2.14634 218.146 2.14634 218.341 2.14634C218.341 2.53659 218.341 157.268 218.341 157.659C217.95 157.659 207.219 157.659 207.219 157.659V160H270.243V118.634H269.072L268.682 122.537Z" fill="white"/>
<path d="M61.2683 122.732C61.0732 130.146 60.6829 137.951 57.7561 144.39C53.4634 154.537 42.5366 156.878 34.5366 157.659C34.3415 157.659 31.6098 157.854 29.0732 157.659C29.0732 157.268 29.0732 80.7805 29.0732 80.3902C31.6098 80.3902 35.7073 80.5854 36.6829 80.9756C40.5854 81.7561 44.0976 85.8537 45.2683 89.1707C47.0244 94.2439 47.0244 99.9024 47.2195 105.951V109.268H48.5854V50.1463H47.2195V53.4634C47.0244 59.3171 47.0244 64.9756 45.2683 70.2439C43.9024 74.1463 40.3902 77.6585 36.6829 78.2439C35.7073 78.439 31.6098 78.8293 29.0732 78.8293C29.0732 78.439 29.0732 2.73171 29.0732 2.34146C31.8049 2.14634 34.3415 2.34146 34.5366 2.34146C42.7317 3.31707 53.4634 6.43902 57.7561 16.5854C60.6829 23.0244 60.878 30.8293 61.2683 38.2439L61.4634 42.1463H62.6341V0H0V0.195122V2.34146H10.7317C10.7317 2.34146 10.9268 2.34146 11.122 2.34146C11.122 2.53659 11.122 157.268 11.122 157.659C10.7317 157.659 0 157.659 0 157.659V160H63.0244V118.829H61.8537L61.2683 122.732Z" fill="white"/>
<path d="M363.511 154.732H362.73V155.512H363.316C363.706 155.512 364.291 155.512 364.291 155.122C364.096 154.732 363.706 154.732 363.511 154.732Z" fill="white"/>
<path d="M363.315 153.756C362.339 153.756 361.559 154.537 361.559 155.512C361.559 156.488 362.339 157.268 363.315 157.268C364.29 157.268 365.071 156.488 365.071 155.512C365.071 154.537 364.29 153.756 363.315 153.756ZM364.485 156.878H364.095L363.315 155.707H362.729V156.878H362.534V154.341H363.705C364.29 154.341 364.681 154.537 364.681 154.927C364.681 155.512 364.29 155.512 363.9 155.707L364.485 156.878Z" fill="white"/>
<path d="M366.047 118.829L365.852 122.732C365.657 130.146 365.267 137.951 362.34 144.39C358.047 154.537 347.12 156.878 339.12 157.659C338.925 157.659 336.194 157.854 333.657 157.659C333.657 157.268 333.657 80.7805 333.657 80.3902C336.194 80.3902 340.291 80.5854 341.267 80.9756C345.169 81.7561 348.681 85.8537 349.852 89.1707C351.608 94.2439 351.608 99.9024 351.803 105.951V109.268H353.169V50.3415H351.803V53.6585C351.608 59.5122 351.608 65.1707 349.852 70.439C348.486 74.3415 344.974 77.8537 341.267 78.439C340.291 78.6341 336.194 79.0244 333.657 79.0244C333.657 78.6341 333.657 2.92683 333.657 2.53659C336.389 2.34146 338.925 2.53659 339.12 2.53659C347.315 3.5122 358.047 6.63415 362.34 16.7805C365.267 23.2195 365.462 31.0244 365.852 38.439L366.047 42.3415H367.218V0H304.389V0.195122V2.34146H315.12C315.12 2.34146 315.315 2.34146 315.511 2.34146C315.511 2.53659 315.511 157.268 315.511 157.659C315.12 157.659 304.389 157.659 304.389 157.659V160H367.413V118.829H366.047ZM363.315 157.659C362.145 157.659 361.169 156.683 361.169 155.512C361.169 154.341 362.145 153.366 363.315 153.366C364.486 153.366 365.462 154.341 365.462 155.512C365.462 156.878 364.486 157.659 363.315 157.659Z" fill="white"/>
</svg>
