<svg width="72" height="80" viewBox="0 0 72 80" fill="none" xmlns="http://www.w3.org/2000/svg">
<path d="M0 0H72V80H0V0Z" fill="#F1F4F7"/>
<path d="M35.9803 20C28.1866 20.0098 21.9282 26.2199 22.0006 33.868C22.0256 36.6362 22.8868 39.2084 24.3472 41.3544C24.4021 41.4328 24.4521 41.5136 24.502 41.5969L34.9918 59.4286C35.4411 60.1905 36.5595 60.1905 37.0088 59.4286L47.4138 41.7415C47.5061 41.5822 47.606 41.4255 47.7083 41.2736C49.1587 39.1104 50 36.5211 50 33.7382C50 26.144 43.7216 19.9902 35.9803 20ZM36.0003 39.9997C32.3481 39.9997 29.3849 37.0943 29.3849 33.5079C29.3849 29.9215 32.3456 27.0161 36.0003 27.0161C39.655 27.0161 42.6157 29.9215 42.6157 33.5079C42.6157 37.0943 39.6525 39.9997 36.0003 39.9997Z" fill="#284CA6"/>
</svg>
